# xmcd
#
# Track frame offsets:
#	150
#	12175
#	31295
#	47385
#	56760
#	63960
#	75140
#	81305
#	106342
#	115597
#	125675
#	137915
#	151312
#	168620
#	180692
#	189790
#
# Disc length: 2820
#
# Revision: 1
# Processed by: cddbd v1.5.1PL0 Copyright (c) Steve Scherf et al.
# Submitted via: OrangeCD 4.2
# Normalized: r0:TDELIM( - )
#
DISCID=c30b0210
DTITLE=Smithsonian Folkways - Music of the American South - Crossroads - Southern Routes
DYEAR=1996
DGENRE=
TTITLE0=Brownie McGhee with Sonny Terry - Rising Sun - Traditional Blues
TTITLE1=The Allman Brothers Band - Statesboro Blues - Southern Rock
TTITLE2=Dirty Dozen Brass Band - Blue Monk - New Orleans Jazz
TTITLE3=Les Quatre Vieux Garcons featuring Dewey Balfa - 15 Ans - Cajun
TTITLE4=Vera Hall Ward - Travelin' Shoes - Spiritual
TTITLE5=The SNCC Freedom Singers - Woke Up This Mornin' With My Mind on Freedom - Civil Rights Movement
TTITLE6=Betty Mae Jumper - The Mice and the Bad Angel/Turtle's Song to the Wolf - Miccosukee and Creek
TTITLE7=Neville Brothers - Brother John/Iko Iko - New Oreleans R&B
TTITLE8=Bill Monroe - White House Blues - Bluegrass
TTITLE9=Carl Perkins - Blue Suede Shoes - Rockabilly
TTITLE10=Lydia Mendoza - Anque Me Odies - Musica Tejana
TTITLE11=Tammy Wynette - Apartment #9 - Contemporary Country
TTITLE12=Denise LaSalle - Too Many Hungry Mouths Around the Table - Soul/Blues
TTITLE13=Doc Watson with Merle Watson - Southbound - Appalachian Folk
TTITLE14=The Kingsmenj - I'd Rather Be An Old Time Christian - Southern Gospel
TTITLE15=Mississippi Mass Choir - There is None Like Him - Contemoprary Gospel
EXTD=
EXTT0=
EXTT1=
EXTT2=
EXTT3=
EXTT4=
EXTT5=
EXTT6=
EXTT7=
EXTT8=
EXTT9=
EXTT10=
EXTT11=
EXTT12=
EXTT13=
EXTT14=
EXTT15=
PLAYORDER=
